<?xml version="1.0" encoding="UTF-8" standalone="no"?>
<svg
   width="118.61841mm"
   height="74.628532mm"
   viewBox="0 0 118.6184 74.628532"
   version="1.1"
   id="svg8"
   xmlns="http://www.w3.org/2000/svg"
   xmlns:svg="http://www.w3.org/2000/svg"
   xmlns:rdf="http://www.w3.org/1999/02/22-rdf-syntax-ns#"
   xmlns:cc="http://creativecommons.org/ns#"
   xmlns:dc="http://purl.org/dc/elements/1.1/">
  <defs
     id="defs2" />
  <metadata
     id="metadata5">
    <rdf:RDF>
      <cc:Work
         rdf:about="">
        <dc:format>image/svg+xml</dc:format>
        <dc:type
           rdf:resource="http://purl.org/dc/dcmitype/StillImage" />
        <dc:title />
      </cc:Work>
    </rdf:RDF>
  </metadata>
  <g
     id="layer1"
     style="display:inline"
     transform="translate(-261.30655,-21.7388)">
    <g
       id="g2"
       transform="translate(205.62521,-107.9035)"
       style="fill:#000000">
      <path
         id="path1"
         style="fill:#000000;stroke:none;stroke-width:0.375299px;stroke-linecap:butt;stroke-linejoin:miter;stroke-opacity:1"
         d="m 94.721937,157.7578 -7.786479,9.21184 a 0.45588086,0.45588086 81.652287 0 0 0.09922,0.6762 l 24.093879,15.70526 a 0.45418928,0.45418928 81.757942 0 1 0.0978,0.67497 l -5.71649,6.71256 a 1.117772,1.117772 155.20906 0 1 -0.851,0.39305 H 85.062358 a 0.24461432,0.24461432 64.647842 0 1 -0.189304,-0.39953 l 9.478424,-11.58216 a 0.45792403,0.45792403 80.868319 0 0 -0.108737,-0.67647 l -10.643404,-6.76519 a 0.59146245,0.59146245 171.32428 0 0 -0.768984,0.11734 l -27.092397,32.05088 a 0.23960225,0.23960225 65.103808 0 0 0.182987,0.39428 l 55.062277,0 a 1.112435,1.112435 155.10451 0 0 0.84956,-0.39427 l 18.97653,-22.44852 a 0.45717731,0.45717731 81.73524 0 0 -0.0984,-0.67742 L 95.486905,157.64667 a 0.58297514,0.58297514 171.73414 0 0 -0.764968,0.11113 z" />
      <path
         id="path2"
         style="fill:#000000;fill-opacity:1;stroke:none;stroke-width:0.3753px;stroke-linecap:butt;stroke-linejoin:miter;stroke-opacity:1"
         d="m 135.25925,176.15579 7.78647,-9.21193 a 0.45588646,0.45588646 81.652256 0 0 -0.0992,-0.67621 l -24.09382,-15.70542 a 0.45419363,0.45419363 81.757988 0 1 -0.0978,-0.67497 l 5.71649,-6.71262 a 1.1177662,1.1177662 155.20895 0 1 0.851,-0.39305 h 19.59642 a 0.24461634,0.24461634 64.647659 0 1 0.18931,0.39954 l -9.4784,11.58226 a 0.45792985,0.45792985 80.868314 0 0 0.10874,0.67648 l 10.64336,6.76526 a 0.59145514,0.59145514 171.32429 0 0 0.76898,-0.11734 l 27.09234,-32.05121 a 0.23960414,0.23960414 65.103635 0 0 -0.18299,-0.39428 h -55.06213 a 1.1124269,1.1124269 155.10435 0 0 -0.84956,0.39427 l -18.976513,22.44876 a 0.45718229,0.45718229 81.735233 0 0 0.0984,0.67743 l 35.223942,23.10416 a 0.58296813,0.58296813 171.7341 0 0 0.76496,-0.11113 z" />
    </g>
  </g>
</svg>
